<?xml version="1.0" encoding="utf-8"?>
<!-- Generator: Adobe Illustrator 19.0.0, SVG Export Plug-In . SVG Version: 6.00 Build 0)  -->
<svg version="1.1" id="Layer_1" xmlns="http://www.w3.org/2000/svg" xmlns:xlink="http://www.w3.org/1999/xlink" x="0px" y="0px"
	 viewBox="0 0 800 1100" style="enable-background:new 0 0 800 1100;" xml:space="preserve">
<g>
	<defs>
		<rect id="SVGID_1_" x="-42.8" y="-40.8" width="885.6" height="1181.7"/>
	</defs>
	<clipPath id="SVGID_2_">
		<use xlink:href="#SVGID_1_"  style="overflow:visible;"/>
	</clipPath>
	<path style="clip-path:url(#SVGID_2_);fill-rule:evenodd;clip-rule:evenodd;" d="M424.3,390.8c-2.2-0.2-5-0.2-7.2,0
		c-14.5,1.1-28.9,7.2-35.3,21.7c-2.8,6.4-4.6,13.1-5.5,19.5c-0.7,5-0.9,11-0.9,16.2c0,12.7,2,27.4,6.1,37l2.8,5.7
		c6.8,10.3,19.3,15.3,33.3,15.8c16.9,0.4,35-4.8,42.5-21.9c2.6-6.4,4.2-13.1,5.3-19.3c0.7-5,1.1-11.8,1.1-17.1
		c0-13.4-2.2-26.7-6.4-36.6l0.2,0.2c-0.7-1.8-2-3.7-3.1-5.5C450.6,396.3,438.4,391.3,424.3,390.8 M423.7,404.9
		c8.8,0.2,15.3,2.6,19.7,7c1.3,1.3,3.1,4.4,3.9,5.9c2.4,7.2,4.8,20.2,4.8,29.8c0,4.4-0.2,11.4-0.9,15.8c-0.9,5.5-2.2,11.2-3.9,15.6
		c-4.2,9-14.2,12.9-23.7,13.4c-9,0.4-19.7-1.1-25.2-6.8c-1.5-1.5-2.8-3.1-3.1-4.4c-3.7-8.5-5.9-21.9-5.9-33.1c0-4.6,0.4-9.4,1.1-14
		c0.7-5.5,2.2-11,4.2-15.6C399.2,407.5,412.5,404.6,423.7,404.9 M337.2,448.9v33.3l-1.8,0.9c-1.8,0.9-3.5,1.5-6.6,2.6
		c-7.4,2.8-16.4,5.3-23.7,5.3c-4.4,0-8.3-1.1-11.4-3.1c-5.7-4.6-8.5-11-8.5-16.9c0-9.2,5.9-18,14.5-19.7c8.5-1.8,19.5-2.4,29.3-2.4
		H337.2z M283.9,392.4c-2,0.2-3.7,1.3-4.8,3.1h0.2c-0.9,1.5-1.5,3.5-1.3,5c0.7,4.4,4.2,6.8,7.9,6.1c8.8-1.3,17.5-2.2,25.2-2.2
		c3.5,0,7.7,0.2,11.2,0.9c8.5,1.8,15.1,6.8,15.1,17.1v12.3c-2.8,0-5.7-0.2-8.8-0.2c-5.7,0-12,0.2-17.5,0.7c-4.4,0.4-9.4,1.1-14,2
		c-16.2,3.3-25.8,18.4-25.8,34c0,2.4,0.2,4.8,0.7,7c1.5,7.9,5.9,15.8,13.4,21.5c5.5,4.2,12.7,5.5,19.9,5.5c9.6,0,20.1-2.4,28.7-5.7
		l3.3-1.3c0,1.5,0.7,3.1,1.8,4.2c1.3,1.3,3.1,2,5,2c4.2,0,7.2-2.8,7.2-6.8l0.2-74.9c0-19.3-11.2-28.3-26.9-31.1
		c-3.9-0.9-8.8-1.3-13.6-1.3C302.1,390,292.7,391.3,283.9,392.4 M243.6,407.9c2.2,0,3.1-0.2,3.5-0.4c2.6-2,3.9-3.9,4.2-5.7
		c0.4-4.2-2.6-7.7-6.1-8.1c-7-0.9-15.3-1.5-21.5-2c-3.3-0.2-6.1-0.2-9-0.2c-20.1,0-33.9,5.3-35,26.9c-1.1,18.4,15.1,26.9,32,35.5
		c13.1,6.8,26.7,14,26.3,25.4c-0.7,4.6-3.1,8.3-9.2,10.5c-4.2,1.3-9.4,2.2-16.4,2.2c-7,0-16-0.9-26.5-2.6c-3.7-0.4-7.2,2-8.1,5.7
		v-0.2c-0.4,2.6,0,4.2,1.1,5.7c1.1,1.8,2.6,2.8,4.6,3.1c11,1.8,20.8,2.6,28.9,2.6c8.5,0,15.5-1.1,20.8-2.6
		c13.4-4.6,18.6-13.6,19.1-23.9c0.7-20.4-16.9-29.3-34.2-38.5c-12.5-6.4-24.8-12.5-24.3-22.1c0.4-10.5,9.2-13.4,21.9-13.4
		c2.4,0,4.6,0,7.2,0.2c5.5,0.2,11.2,0.9,17.3,1.5L243.6,407.9z M544.7,293.7c5.6-25.2,22-41.2,42.1-49.9c6.1-2.6,20.1-8.6,25.9-2
		c1.1,1.4,1.6,2.9,1.6,4.4c-0.2,1.5-1.2,2.9-2.8,4.2c-1.7,1.2-4.9,2.3-9.7,3.1c-24.7,4-41.8,26.2-44,41.1c12,1.2,21.9,4,29.7,8.2
		c22.4,12.1,18.5,52.2,2.3,64.9c-4.5,3.5-16.3,9.4-33,11.7c1.2,30.6-5.3,54.9-38.8,59.2c4.1,55.7,40.5,74.1,87.3,88.6
		c10.4,3.4,14.7,4.6,16.2,6.8c1.6,2.2,2.4,9.2-4.1,10.6c-4.2,0.9-22.8-5.4-28.2-7c-85.3-27.4-89-77.6-85.9-156.2
		c-6,0.3-12.8,0.4-20.3-0.5c-21.9-2.6-30.6-19.7-30.7-39.4c-0.1-7.4,1.1-13.9,3.5-19.3c2.4-5.4,5.8-9.9,10.1-13.3
		c4.4-3.4,9-5.9,13.9-7.5c4.9-1.6,12.6-3.7,23.7-5.8c-2-32-14.4-45.9-48.3-38.1c-6.2,1.4-9.4,0.6-9.9-2.5c-0.5-3.1,0.3-5.6,2.1-7.5
		c3.8-3.9,22.8-4.2,28.8-4c32.3,2.3,37.9,28,40.3,50.5C526.3,293.5,534.2,293.3,544.7,293.7 M504.1,308.2
		c-17.9,1.6-28.2,7.5-31.8,11.7c-3.7,4.2-5.3,8.7-5.7,17.1c-0.4,8.3,0.5,14.7,2.8,19.1c2.3,4.4,5.9,7.8,10.7,10
		c4.5,2.2,12.1,2.8,23.1,1.8c0.3-14.3,0.5-22.5,0.6-24.9L504.1,308.2z M542.9,306.3c-8-0.2-17.5,0-25.8,0.7
		c-0.3,39.3-1.9,77.5-0.5,116.8c22.3-1.6,26.2-19.7,26.5-36.9c0.1-7.1,0.7-15.9-0.1-31.3C542.3,340.3,542.3,323.3,542.9,306.3
		 M555.6,307.2c-1,20.1-0.4,38.6,0.7,58.7c8.8-1.1,15.4-3.1,20.9-5.9c11.1-5.6,14.4-20,13.1-31.5C588.3,310,571.1,307.9,555.6,307.2
		"/>
	<path style="clip-path:url(#SVGID_2_);fill-rule:evenodd;clip-rule:evenodd;" d="M400,41.6c193.4,0,350.1,156.8,350.1,350.1
		S593.4,741.9,400,741.9S49.9,585.1,49.9,391.8S206.6,41.6,400,41.6 M400,31.8c198.8,0,360,161.2,360,360s-161.2,360-360,360
		S40,590.6,40,391.8S201.2,31.8,400,31.8"/>
	<g style="clip-path:url(#SVGID_2_);">
		<path d="M214.9,898.7c2.4,1.6,4.9,3.2,7.4,4.8c2.5,1.6,4.9,3.2,7.2,4.8c-0.5,0.8-1,1.7-1.5,2.8c-0.5,1.1-0.8,2.1-0.9,3.2
			c0,0.1-0.1,0.5-0.2,1c-0.1,0.5-0.4,2-0.8,4.3c-0.4,2.3-1,6-1.8,10.9c-0.8,4.9-1.9,11.9-3.4,20.8l13.6-1.2l9.4-63.4l-32.8,4.4
			l-4.6-6c1.1-0.1,1.5-0.2,1.3-0.1c-0.2,0.1,0.2,0.1,1.1,0.1c1.9-0.1,3.6-0.2,5.2-0.3c1.6-0.1,3.6-0.2,6-0.5
			c2.4-0.3,5.4-0.6,9.1-1.1c3.7-0.5,8.4-1.1,14.3-1.9c0.5-0.7,1-1.4,1.5-2.3c0.5-0.9,1-1.7,1.7-2.5c2.1,1.1,4.1,2,5.9,2.9
			c1.8,0.9,3.6,1.8,5.5,2.9l-3,4.6l-10,62l4.8-0.6l4.4-5.4l9.4,5.6l-4,5.8c-0.7,6-1.6,12.1-2.7,18.4c-1.1,6.3-2.4,12.3-3.7,18.1
			c-1.3,5.8-2.8,11.2-4.3,16.2c-1.5,5-3,9.4-4.5,13.1c-0.7,1.7-1.4,3.3-2.2,4.8c-0.8,1.5-1.8,2.7-3,3.7c-1.2,1-2.6,1.8-4.3,2.3
			c-1.7,0.5-3.7,0.8-6.1,0.8c-0.9-4.3-2.8-8.4-5.7-12.3c-2.9-3.9-6.4-7-10.5-9.3l0.4-0.4l19.8,9.2c2.3-6.4,4.4-13.1,6.5-20.1
			c2.1-7,3.8-13.9,5.1-20.7l-20.6,8.4h0.2c-1.1,0.4-2.4,1-4,1.7c-1.6,0.7-3.3,1.5-5.2,2.4c-1.9,0.9-3.7,1.8-5.6,2.8
			c-1.9,1-3.6,2-5.2,2.9l-13.6-13.6l0.4-1c1.2,0.3,2.6,0.6,4.1,0.9c1.5,0.3,2.9,0.6,4.1,0.7c4.5,0.3,8.2,0.2,11.1-0.2
			c2.9-0.4,6.1-1,9.7-1.8l25-6c0.7-3.1,1.2-6.3,1.7-9.6c0.5-3.3,0.9-6.4,1.3-9.2c0-0.3,0-0.9,0.1-1.8c0.1-0.9,0.1-1.5,0.1-1.8
			l-30.8,3.6l-5.2,5l-6.2-6l4.8-4l5.4-38.4c0.3-2.7,0.3-5,0-6.9c-0.3-1.9-0.9-4.2-1.8-6.9L214.9,898.7z M275.7,955.3l14.2,8
			l19.8-2.2v-3c0.3-7.3-1.3-13.3-4.8-18l1-1l17.6,7.8c-0.7,1.2-1.3,2.7-1.8,4.4c-0.5,1.7-0.9,3.4-1,5v3.6l19.8-2.2l4.4-5.6
			c2.3,1.5,4.3,2.8,6.1,3.9c1.8,1.1,3.8,2.4,6.1,3.7l-3.8,5.8l-2.6,19.8l5,3l-2.4,2.8c-4,0-8.9,0.1-14.6,0.4
			c-5.7,0.3-11.9,0.7-18.4,1.4l-0.2,20.8c2-0.3,4.5-0.6,7.5-0.9c3-0.3,5.4-0.6,7.3-0.9l11.2-1.4c-2-2.3-3.9-4.4-5.8-6.5
			c-1.9-2.1-3.7-4-5.4-5.7c7.2,2.3,13.6,5.3,19.3,9.2c5.7,3.9,10.2,7.6,13.5,11.2c-1.9,2.3-3.4,4.4-4.7,6.3c-1.3,1.9-2.8,4-4.5,6.3
			h-0.8c-0.7-2.3-1.9-5.1-3.7-8.4c-1.8-3.3-4-6.7-6.5-10.2c-6.3,1.2-13,2.6-20.1,4.1c-7.1,1.5-14.1,3.1-20.9,4.6
			c-6.8,1.5-13.2,3-19.1,4.5c-5.9,1.5-10.8,2.8-14.7,4l-14.4-15.4l1-1c3.1,1.3,6.6,2.2,10.7,2.7c4.1,0.5,8.4,0.7,12.9,0.7
			c3.7,0,7.8-0.1,12.3-0.4c4.5-0.3,9-0.7,13.7-1.4l0.4-21.2l-20.6,2.2l-5.6,6.8c-1.1-1.3-1.9-2.3-2.6-3c-0.7-0.7-1.5-1.5-2.6-2.6
			l0.2-29c-0.1-2.3-0.5-4.5-1.1-6.8c-0.6-2.3-1.2-4.1-1.9-5.4L275.7,955.3z M283.5,883.9c-0.7-1.1-1.3-2.1-1.8-3.1
			c-0.5-1-1.1-2-1.8-2.9c4.1-0.1,8.7-0.4,13.8-0.8c5.1-0.4,10.2-0.9,15.4-1.4c5.2-0.5,10.2-1.1,15.1-1.7c4.9-0.6,9.1-1.2,12.7-1.7
			l3.6-4c2.1,1.7,4.1,3.3,5.8,4.8c1.7,1.5,3.7,3,5.8,4.6l-4.4,4.6c-3.5,6-7.2,12-11.3,17.9c-4.1,5.9-9.1,11.9-15.1,17.9
			c10,5.5,20.3,10.2,30.8,14.3c10.5,4.1,21,7,31.4,8.7c0,0.3,0,0.4,0.1,0.5c0.1,0.1,0.1,0.2,0.1,0.5l-23,5.6h-0.4
			c-2.5-0.8-5.5-2-8.8-3.7c-3.3-1.7-6.9-3.7-10.7-6c-3.8-2.3-7.7-4.8-11.8-7.5c-4.1-2.7-8.1-5.4-12.1-8.2
			c-6.4,5.6-13.5,10.8-21.3,15.7c-7.8,4.9-16.6,9.4-26.5,13.7c7.6-4.5,14.8-9.8,21.7-15.8c6.9-6,13.2-12.2,19.1-18.6l-19.6-12.6
			c-1.6-1.2-3.6-2.2-5.9-2.9c-2.3-0.7-4.6-1.1-6.9-1.1v-2.2l10-2.2c4,2.8,8.2,5.7,12.7,8.6c4.5,2.9,8.8,5.7,13.1,8.4
			c4.8-6,9-12.1,12.7-18.3c3.7-6.2,6.6-12,8.7-17.3L283.5,883.9z M289.7,990.7c2.4-0.1,5.6-0.3,9.6-0.6c4-0.3,7.4-0.5,10.2-0.8v-23
			l-19.2,2.4L289.7,990.7z M311.7,904.1c-0.8-2.3-2.3-5.1-4.6-8.4c-2.3-3.3-4.9-6.3-8-9c3.2,0.3,6.6,1.2,10.2,2.7
			c3.6,1.5,6.5,3.2,8.8,5.1l-5.6,9.6H311.7z M341.3,962.7l-20.8,2.4v23l18.6-2.4L341.3,962.7z"/>
		<path d="M504.3,864.3l17,7.8c-0.7,1.1-1.1,2.4-1.3,4c-0.2,1.6-0.3,3.1-0.3,4.6l-0.6,48.6l36.8-12.2l4.2-8.4
			c3.1,0.8,5.8,1.6,8.1,2.3c2.3,0.7,5,1.5,7.9,2.3l-3.4,6.8c-0.3,5.2-0.7,10.5-1.2,15.9c-0.5,5.4-1.2,10.6-2.1,15.7
			c-0.9,5.1-1.9,9.9-3,14.4c-1.1,4.5-2.3,8.7-3.5,12.4c-2,4.4-4.4,7.8-7.1,10.1c-2.7,2.3-6.2,3.4-10.5,3.3c-0.1-2.5-0.5-4.7-1.2-6.6
			c-0.7-1.9-1.6-3.6-2.9-5.1c-1.3-1.5-3-3-5.1-4.4c-2.1-1.4-4.7-2.8-7.8-4.3c0.1-0.3,0.2-0.6,0.2-1l21.2,6
			c3.2-9.5,5.5-18.4,6.8-26.9c1.3-8.5,2.1-17.4,2.4-26.7c-2.7,0.3-7.6,1.6-14.8,4c-7.2,2.4-15.7,5.3-25.4,8.6
			c-0.1,8.4-0.2,16.9-0.2,25.5v25.7l-6.6,9.2l-4.6-7.8l0.4-48.8l-32,11.2v51.4c0,2.7,0.4,4.9,1.2,6.8c0.8,1.9,1.9,3.4,3.3,4.5
			c1.4,1.1,3,1.9,4.7,2.4c1.7,0.5,3.5,0.7,5.4,0.7l85.4-0.8c3.3,0,6.1-0.3,8.4-1c2.3-0.7,4.1-1.6,5.5-2.9c1.4-1.3,2.5-2.9,3.3-4.8
			c0.8-1.9,1.5-4.3,2-7.1l4-20h0.8l5,32.6l4.8,0.8c-1.2,3.9-3.4,6.6-6.5,8.3c-3.1,1.7-6.8,2.6-10.9,2.9c-1.3,0.1-3.7,0.2-7.2,0.3
			c-3.5,0.1-7.7,0.2-12.7,0.3c-5,0.1-10.5,0.2-16.5,0.3c-6,0.1-12.1,0.1-18.2,0.2c-6.1,0.1-12.2,0.1-18.2,0.1h-16.4h-11.7
			c-3.3,0-5.6-0.1-6.9-0.2c-2.9-0.1-5.7-0.7-8.2-1.6c-2.5-0.9-4.7-2.3-6.6-4.2c-1.9-1.9-3.3-4.3-4.4-7.3c-1.1-3-1.5-6.8-1.4-11.3
			v-46l-29.4,10.6l-6.4-5c3.3-1.1,8.1-2.6,14.4-4.7c6.3-2.1,13.4-4.4,21.4-7.1v-32.2c0-7.7-1.7-13.6-5-17.6l1.8-1.4l19.4,10.6
			c-1.1,1.9-2,4.1-2.7,6.6c-0.7,2.5-1.2,5.6-1.3,9.2l-0.2,20.4c5.2-1.6,10.5-3.4,15.8-5.3c5.3-1.9,10.7-3.8,16.2-5.7l0.4-52.6
			c0-3.7-0.4-6.7-1.1-8.8c-0.7-2.1-2-4.4-3.9-6.8L504.3,864.3z"/>
	</g>
</g>
</svg>
