<?xml version="1.0" encoding="utf-8"?>
<!-- Generator: Adobe Illustrator 19.0.0, SVG Export Plug-In . SVG Version: 6.00 Build 0)  -->
<svg version="1.1" id="Layer_1" xmlns="http://www.w3.org/2000/svg" xmlns:xlink="http://www.w3.org/1999/xlink" x="0px" y="0px"
	 viewBox="328 -328 720 720" style="enable-background:new 328 -328 720 720;" xml:space="preserve">
<style type="text/css">
	.st0{fill:#FFFFFF;stroke:#000000;stroke-width:12;stroke-miterlimit:10;}
</style>
<path class="st0" d="M688-198.3c127.2,0,230.3,103.1,230.3,230.3S815.2,262.3,688,262.3S457.7,159.2,457.7,32S560.8-198.3,688-198.3
	"/>
<path d="M703.9,31.4c-1.4-0.1-3.3-0.1-4.7,0c-9.5,0.7-19,4.7-23.2,14.3c-1.8,4.2-3,8.6-3.6,12.8c-0.5,3.3-0.6,7.2-0.6,10.7
	c0,8.4,1.3,18,4,24.3l1.8,3.7c4.5,6.8,12.7,10.1,21.9,10.4c11.1,0.3,23-3.2,28-14.4c1.7-4.2,2.8-8.6,3.5-12.7
	c0.5-3.3,0.7-7.8,0.7-11.2c0-8.8-1.4-17.6-4.2-24.1l0.1,0.1c-0.5-1.2-1.3-2.4-2-3.6C721.2,35,713.2,31.6,703.9,31.4 M703.5,40.6
	c5.8,0.1,10.1,1.7,13,4.6c0.9,0.9,2,2.9,2.6,3.9c1.6,4.7,3.2,13.3,3.2,19.6c0,2.9-0.1,7.5-0.6,10.4c-0.6,3.6-1.4,7.4-2.6,10.3
	c-2.8,5.9-9.3,8.5-15.6,8.8c-5.9,0.3-13-0.7-16.6-4.5c-1-1-1.8-2-2-2.9c-2.4-5.6-3.9-14.4-3.9-21.8c0-3,0.3-6.2,0.7-9.2
	c0.5-3.6,1.4-7.2,2.8-10.3C687.4,42.3,696.1,40.5,703.5,40.6z M646.6,69.5v21.9l-1.2,0.6c-1.2,0.6-2.3,1-4.3,1.7
	c-4.9,1.8-10.8,3.5-15.6,3.5c-2.9,0-5.5-0.7-7.5-2c-3.7-3-5.6-7.2-5.6-11.1c0-6.1,3.9-11.8,9.5-13c5.6-1.2,12.8-1.6,19.3-1.6
	L646.6,69.5L646.6,69.5z M611.5,32.4c-1.3,0.1-2.4,0.9-3.2,2h0.1c-0.6,1-1,2.3-0.9,3.3c0.5,2.9,2.8,4.5,5.2,4
	c5.8-0.9,11.5-1.4,16.6-1.4c2.3,0,5.1,0.1,7.4,0.6c5.6,1.2,9.9,4.5,9.9,11.2v8.1c-1.8,0-3.7-0.1-5.8-0.1c-3.7,0-7.9,0.1-11.5,0.5
	c-2.9,0.3-6.2,0.7-9.2,1.3c-10.7,2.2-17,12.1-17,22.3c0,1.6,0.1,3.2,0.5,4.6c1,5.2,3.9,10.4,8.8,14.1c3.6,2.8,8.4,3.6,13.1,3.6
	c6.3,0,13.3-1.6,18.9-3.7l2.2-0.9c0,1,0.5,2,1.2,2.8c0.9,0.9,2,1.3,3.3,1.3c2.8,0,4.7-1.8,4.7-4.5l0.1-49.3
	c0-12.7-7.4-18.6-17.7-20.5c-2.6-0.6-5.8-0.9-8.9-0.9C623.5,30.8,617.3,31.6,611.5,32.4z M585,42.6c1.4,0,2-0.1,2.3-0.3
	c1.7-1.3,2.6-2.6,2.8-3.7c0.3-2.8-1.7-5.1-4-5.3c-4.6-0.6-10.1-1-14.1-1.3c-2.2-0.1-4-0.1-5.9-0.1c-13.3,0-22.3,3.5-23,17.7
	c-0.7,12.1,9.9,17.7,21,23.4c8.6,4.5,17.6,9.2,17.3,16.7c-0.5,3-2,5.5-6.1,6.9c-2.8,0.9-6.2,1.4-10.8,1.4c-4.6,0-10.5-0.6-17.4-1.7
	c-2.4-0.3-4.7,1.3-5.3,3.7v-0.1c-0.3,1.7,0,2.8,0.7,3.7c0.7,1.2,1.7,1.8,3,2c7.2,1.2,13.7,1.7,19,1.7c5.6,0,10.3-0.7,13.7-1.7
	c8.8-3,12.2-8.9,12.6-15.7c0.5-13.4-11.1-19.3-22.5-25.3c-8.2-4.2-16.2-8.2-16-14.5c0.3-6.9,6.1-8.8,14.4-8.8c1.6,0,3,0,4.7,0.1
	c3.6,0.1,7.4,0.6,11.4,1L585,42.6z M783.1-32.5c3.7-16.6,14.5-27.1,27.7-32.8c4-1.7,13.2-5.7,17-1.3c0.7,0.9,1.1,1.9,1.1,2.9
	c-0.1,1-0.8,1.9-1.8,2.8c-1.1,0.8-3.2,1.5-6.4,2c-16.2,2.6-27.5,17.2-28.9,27c7.9,0.8,14.4,2.6,19.5,5.4c14.7,8,12.2,34.3,1.5,42.7
	c-3,2.3-10.7,6.2-21.7,7.7c0.8,20.1-3.5,36.1-25.5,38.9c2.7,36.6,26.6,48.7,57.4,58.3c6.8,2.2,9.7,3,10.7,4.5c1.1,1.4,1.6,6.1-2.7,7
	c-2.8,0.6-15-3.6-18.5-4.6c-56.1-18-58.5-51-56.5-102.7c-3.9,0.2-8.4,0.3-13.4-0.3c-14.4-1.7-20.1-13-20.2-25.9
	c-0.1-4.9,0.7-9.1,2.3-12.7c1.6-3.6,3.8-6.5,6.6-8.7c2.9-2.2,5.9-3.9,9.1-4.9c3.2-1.1,8.3-2.4,15.6-3.8c-1.3-21-9.5-30.2-31.8-25.1
	c-4.1,0.9-6.2,0.4-6.5-1.6c-0.3-2,0.2-3.7,1.4-4.9c2.5-2.6,15-2.8,18.9-2.6c21.2,1.5,24.9,18.4,26.5,33.2
	C771-32.7,776.2-32.8,783.1-32.5z M756.4-23c-11.8,1-18.5,4.9-20.9,7.7c-2.4,2.8-3.5,5.7-3.7,11.2c-0.3,5.5,0.3,9.7,1.8,12.6
	s3.9,5.1,7,6.6c3,1.4,8,1.8,15.2,1.2c0.2-9.4,0.3-14.8,0.4-16.4L756.4-23z M781.9-24.2c-5.3-0.1-11.5,0-17,0.5
	c-0.2,25.8-1.2,51-0.3,76.8c14.7-1.1,17.2-13,17.4-24.3c0.1-4.7,0.5-10.5-0.1-20.6C781.5-1.9,781.5-13.1,781.9-24.2z M790.3-23.7
	c-0.7,13.2-0.3,25.4,0.5,38.6c5.8-0.7,10.1-2,13.7-3.9c7.3-3.7,9.5-13.2,8.6-20.7C811.8-21.8,800.5-23.2,790.3-23.7z"/>
</svg>
