<?xml version="1.0" encoding="utf-8"?>
<!-- Generator: Adobe Illustrator 19.0.0, SVG Export Plug-In . SVG Version: 6.00 Build 0)  -->
<svg version="1.2" baseProfile="tiny" id="Layer_1" xmlns="http://www.w3.org/2000/svg" xmlns:xlink="http://www.w3.org/1999/xlink"
	 x="0px" y="0px" viewBox="328 -468 720 1000" xml:space="preserve">
<text transform="matrix(0.8 0 0 1 508.0001 499.5312)" font-family="'MFKeSong_Noncommercial-Regular-GBpc-EUC-H'" font-size="200px">骚 也</text>
<path fill-rule="evenodd" d="M712.3-109.1c-2.2-0.2-5-0.2-7.2,0c-14.5,1.1-28.9,7.2-35.3,21.7c-2.8,6.4-4.6,13.1-5.5,19.5
	c-0.7,5-0.9,11-0.9,16.2c0,12.7,2,27.4,6.1,37l2.8,5.7c6.8,10.3,19.3,15.3,33.3,15.8c16.9,0.4,35-4.8,42.5-21.9
	c2.6-6.4,4.2-13.1,5.3-19.3c0.7-5,1.1-11.8,1.1-17.1c0-13.4-2.2-26.7-6.4-36.6l0.2,0.2c-0.7-1.8-2-3.7-3.1-5.5
	C738.6-103.6,726.4-108.7,712.3-109.1 M711.7-95.1c8.8,0.2,15.3,2.6,19.7,7c1.3,1.3,3.1,4.4,3.9,5.9c2.4,7.2,4.8,20.2,4.8,29.8
	c0,4.4-0.2,11.4-0.9,15.8c-0.9,5.5-2.2,11.2-3.9,15.6c-4.2,9-14.2,12.9-23.7,13.4c-9,0.4-19.7-1.1-25.2-6.8
	c-1.5-1.5-2.8-3.1-3.1-4.4c-3.7-8.5-5.9-21.9-5.9-33.1c0-4.6,0.4-9.4,1.1-14c0.7-5.5,2.2-11,4.2-15.6
	C687.2-92.5,700.5-95.3,711.7-95.1z M625.2-51.1v33.3l-1.8,0.9c-1.8,0.9-3.5,1.5-6.6,2.6c-7.4,2.8-16.4,5.3-23.7,5.3
	c-4.4,0-8.3-1.1-11.4-3.1c-5.7-4.6-8.5-11-8.5-16.9c0-9.2,5.9-18,14.5-19.7c8.5-1.8,19.5-2.4,29.4-2.4H625.2z M571.9-107.6
	c-2,0.2-3.7,1.3-4.8,3.1h0.2c-0.9,1.5-1.5,3.5-1.3,5c0.7,4.4,4.2,6.8,7.9,6.1c8.8-1.3,17.5-2.2,25.2-2.2c3.5,0,7.7,0.2,11.2,0.9
	c8.5,1.8,15.1,6.8,15.1,17.1v12.3c-2.8,0-5.7-0.2-8.8-0.2c-5.7,0-12,0.2-17.5,0.7c-4.4,0.4-9.4,1.1-14,2
	c-16.2,3.3-25.8,18.4-25.8,33.9c0,2.4,0.2,4.8,0.7,7c1.5,7.9,5.9,15.8,13.4,21.5C578.7,3.7,586,5,593.2,5c9.6,0,20.2-2.4,28.7-5.7
	l3.3-1.3c0,1.5,0.7,3.1,1.8,4.2c1.3,1.3,3.1,2,5,2c4.2,0,7.2-2.8,7.2-6.8l0.2-74.9c0-19.3-11.2-28.3-26.9-31.1
	c-3.9-0.9-8.8-1.3-13.6-1.3C590.1-110,580.7-108.7,571.9-107.6z M531.6-92c2.2,0,3.1-0.2,3.5-0.4c2.6-2,3.9-3.9,4.2-5.7
	c0.4-4.2-2.6-7.7-6.1-8.1c-7-0.9-15.3-1.5-21.5-2c-3.3-0.2-6.1-0.2-9-0.2c-20.2,0-33.9,5.3-35,26.9c-1.1,18.4,15.1,26.9,32,35.5
	c13.1,6.8,26.7,14,26.3,25.4c-0.7,4.6-3.1,8.3-9.2,10.5c-4.2,1.3-9.4,2.2-16.4,2.2c-7,0-16-0.9-26.5-2.6c-3.7-0.4-7.2,2-8.1,5.7
	v-0.2c-0.4,2.6,0,4.2,1.1,5.7c1.1,1.8,2.6,2.8,4.6,3.1c11,1.8,20.8,2.6,28.9,2.6c8.5,0,15.6-1.1,20.8-2.6
	c13.4-4.6,18.6-13.6,19.1-23.9c0.7-20.4-16.9-29.3-34.2-38.5c-12.5-6.4-24.7-12.5-24.3-22.1c0.4-10.5,9.2-13.4,21.9-13.4
	c2.4,0,4.6,0,7.2,0.2c5.5,0.2,11.2,0.9,17.3,1.5L531.6-92z M832.7-206.2c5.6-25.2,22-41.2,42.1-49.9c6.1-2.6,20.1-8.6,25.9-2
	c1.1,1.4,1.6,2.9,1.6,4.4c-0.2,1.5-1.2,2.9-2.8,4.2c-1.7,1.2-4.9,2.3-9.7,3.1c-24.7,4-41.8,26.2-44,41.1c12,1.2,21.9,4,29.7,8.2
	c22.4,12.1,18.5,52.2,2.3,64.9c-4.5,3.5-16.3,9.4-33,11.7c1.2,30.6-5.3,54.9-38.8,59.2c4.1,55.7,40.5,74.1,87.3,88.6
	c10.4,3.4,14.7,4.6,16.2,6.8c1.6,2.2,2.4,9.2-4.1,10.6c-4.2,0.9-22.8-5.4-28.2-7c-85.3-27.4-89-77.6-85.9-156.2
	c-6,0.3-12.8,0.4-20.3-0.5c-21.9-2.6-30.6-19.7-30.7-39.4c-0.1-7.4,1.1-13.9,3.5-19.3c2.4-5.4,5.8-9.9,10.1-13.3
	c4.4-3.4,9-5.9,13.9-7.5c4.9-1.6,12.6-3.7,23.7-5.8c-2-32-14.4-45.9-48.3-38.1c-6.2,1.4-9.4,0.6-9.9-2.5c-0.5-3.1,0.3-5.6,2.1-7.5
	c3.8-3.9,22.8-4.2,28.8-4c32.3,2.3,37.9,28,40.3,50.5C814.3-206.5,822.2-206.7,832.7-206.2z M792.1-191.8
	c-17.9,1.5-28.2,7.5-31.8,11.7c-3.7,4.2-5.3,8.7-5.7,17.1c-0.4,8.3,0.5,14.7,2.8,19.1c2.3,4.4,5.9,7.8,10.7,10
	c4.5,2.2,12.1,2.8,23.1,1.8c0.3-14.3,0.5-22.5,0.6-24.9L792.1-191.8z M830.9-193.6c-8-0.2-17.5,0-25.8,0.7
	c-0.3,39.3-1.9,77.5-0.5,116.8c22.3-1.6,26.2-19.7,26.5-36.9c0.1-7.1,0.7-15.9-0.1-31.3C830.3-159.7,830.3-176.7,830.9-193.6z
	 M843.6-192.8c-1,20.1-0.4,38.6,0.7,58.7c8.8-1.1,15.4-3.1,20.9-5.9c11.1-5.6,14.4-20,13.1-31.5
	C876.3-189.9,859.1-192.1,843.6-192.8z"/>
<path fill-rule="evenodd" d="M688-458.3c193.4,0,350.1,156.8,350.1,350.1S881.4,241.9,688,241.9S337.9,85.2,337.9-108.2
	S494.6-458.3,688-458.3 M688-468.2c198.8,0,360,161.2,360,360s-161.2,360-360,360s-360-161.2-360-360S489.2-468.2,688-468.2z"/>
</svg>
